<?xml version="1.0" encoding="UTF-8"?>
<svg version="1.1" xmlns="http://www.w3.org/2000/svg" width="396" height="118">
<path d="M0 0 C2.5 0.125 2.5 0.125 3.5 1.125 C3.58861992 3.9366338 3.61522355 6.72358255 3.59765625 9.53515625 C3.5962413 10.37719101 3.59482635 11.21922577 3.59336853 12.08677673 C3.58775263 14.78705335 3.57519748 17.48724828 3.5625 20.1875 C3.55748705 22.01367068 3.55292379 23.83984266 3.54882812 25.66601562 C3.53777804 30.15237542 3.52050279 34.63867384 3.5 39.125 C5.26428345 39.16258423 5.26428345 39.16258423 7.06420898 39.20092773 C11.41214622 39.29482806 15.75991716 39.39509048 20.10766602 39.49731445 C21.99239218 39.54072933 23.87715936 39.58239943 25.76196289 39.62231445 C28.46513249 39.67985893 31.16809436 39.74359804 33.87109375 39.80859375 C34.71900986 39.82530624 35.56692596 39.84201874 36.4405365 39.85923767 C42.38612829 40.01112829 42.38612829 40.01112829 43.5 41.125 C43.54063832 42.79117115 43.542721 44.45888095 43.5 46.125 C42.35934082 46.15005615 41.21868164 46.1751123 40.04345703 46.20092773 C35.82035659 46.29494293 31.59742291 46.39517787 27.37451172 46.49731445 C25.54512425 46.54068565 23.71569573 46.58235911 21.88623047 46.62231445 C19.25996514 46.67996418 16.6339069 46.74367365 14.0078125 46.80859375 C13.18693146 46.82530624 12.36605042 46.84201874 11.52029419 46.85923767 C7.3766304 46.8681387 7.3766304 46.8681387 3.5 48.125 C3.5 60.665 3.5 73.205 3.5 86.125 C1.19 86.125 -1.12 86.125 -3.5 86.125 C-3.5 73.255 -3.5 60.385 -3.5 47.125 C-15.54164847 47.16455438 -15.54164847 47.16455438 -27.58325195 47.21508789 C-29.093261 47.2180086 -30.60327084 47.2205568 -32.11328125 47.22265625 C-32.89682983 47.22777222 -33.68037842 47.23288818 -34.4876709 47.23815918 C-37.75575102 47.23868519 -40.37678633 47.16607122 -43.5 46.125 C-43.542721 44.45888095 -43.54063832 42.79117115 -43.5 41.125 C-42.5 40.125 -42.5 40.125 -38.80639648 40.01147461 C-37.16128708 40.01163376 -35.51617269 40.01733012 -33.87109375 40.02734375 C-32.57474754 40.02946617 -32.57474754 40.02946617 -31.25221252 40.03163147 C-28.48060708 40.03724761 -25.7090812 40.04980281 -22.9375 40.0625 C-21.0631522 40.06751292 -19.18880315 40.07207619 -17.31445312 40.07617188 C-12.70960456 40.08722228 -8.10481579 40.1044977 -3.5 40.125 C-3.50523682 38.94881104 -3.51047363 37.77262207 -3.51586914 36.56079102 C-3.53391663 32.21297969 -3.54543108 27.8651717 -3.55493164 23.51733398 C-3.55997244 21.6325627 -3.56680498 19.74779535 -3.57543945 17.86303711 C-3.58751617 15.15998364 -3.59323068 12.45698169 -3.59765625 9.75390625 C-3.60281754 8.90599014 -3.60797882 8.05807404 -3.61329651 7.1844635 C-3.61349195 5.16428932 -3.56206211 3.14422066 -3.5 1.125 C-2.5 0.125 -2.5 0.125 0 0 Z " fill="#0D0D0D" transform="translate(62.5,11.875)"/>
<path d="M0 0 C3.69961265 3.35223118 5.74928926 5.96372895 6.9375 10.875 C6.958125 11.90625 6.97875 12.9375 7 14 C6 15 6 15 3.93359375 15.09765625 C3.10988281 15.08605469 2.28617188 15.07445313 1.4375 15.0625 C0.61121094 15.05347656 -0.21507812 15.04445313 -1.06640625 15.03515625 C-2.02353516 15.01775391 -2.02353516 15.01775391 -3 15 C-3.433125 13.88625 -3.86625 12.7725 -4.3125 11.625 C-5.69911119 7.82487666 -5.69911119 7.82487666 -9 6 C-14.66432484 5.32731749 -14.66432484 5.32731749 -19.4375 7.875 C-24.17432053 14.31707592 -23.53555083 24.45013438 -22.44921875 32.125 C-21.80304523 34.8220721 -20.6990954 36.82515789 -19 39 C-15.80730134 40.59634933 -12.47352373 40.37216326 -9 40 C-5.64692414 38.41170091 -5.11794577 37.30076171 -3.75 33.8125 C-3.5025 32.884375 -3.255 31.95625 -3 31 C0.3 31 3.6 31 7 31 C6.88392678 37.50010026 5.34259688 40.6931842 0.8203125 45.37109375 C-1.4429458 47.39636995 -3.01384307 48.36010923 -6 49 C-6.65742188 49.14179687 -7.31484375 49.28359375 -7.9921875 49.4296875 C-15.13664041 50.64103073 -20.71083549 49.04659125 -26.8125 45.25 C-33.16748364 38.7134454 -34.19304135 31.96467342 -34.25 23.25 C-34.270625 22.4765625 -34.29125 21.703125 -34.3125 20.90625 C-34.357578 14.18962858 -32.90330056 8.99090088 -29.25 3.25 C-21.20952477 -4.79047523 -9.61449067 -6.40966045 0 0 Z " fill="#0F0F0F" transform="translate(192,34)"/>
<path d="M0 0 C3.53296473 2.5364875 5.067571 4.64021299 6.4375 8.75 C6.7966261 13.45035018 6.90438241 18.16402603 7.0625 22.875 C7.1140625 24.18855469 7.165625 25.50210938 7.21875 26.85546875 C7.26257813 28.10199219 7.30640625 29.34851563 7.3515625 30.6328125 C7.3923291 31.78152832 7.4330957 32.93024414 7.47509766 34.11376953 C7.4375 36.75 7.4375 36.75 6.4375 37.75 C2.15187602 37.89051226 -1.42435467 37.86411605 -5.5625 36.75 C-6.5525 37.245 -6.5525 37.245 -7.5625 37.75 C-12.13183999 38.17054103 -16.24354995 38.31125534 -20.5 36.5 C-23.65259653 33.82506961 -25.22272301 31.86641012 -26.4375 27.875 C-26.59731627 23.87959324 -25.79166291 22.05779013 -23.5625 18.75 C-18.43799947 14.71581873 -14.71206746 13.60329517 -8.3125 13.6875 C-7.42046875 13.69652344 -6.5284375 13.70554687 -5.609375 13.71484375 C-4.93390625 13.72644531 -4.2584375 13.73804688 -3.5625 13.75 C-4.2225 11.77 -4.8825 9.79 -5.5625 7.75 C-8.31211511 6.80392193 -8.31211511 6.80392193 -11.5625 6.75 C-12.325625 7.575 -13.08875 8.4 -13.875 9.25 C-16.5625 11.75 -16.5625 11.75 -18.875 11.86328125 C-21.13733938 11.59109354 -23.33763413 11.23956744 -25.5625 10.75 C-25.14693583 5.90175132 -23.18801755 3.86963138 -19.5625 0.75 C-13.84038716 -2.82476898 -6.1430851 -2.15546846 0 0 Z M-15.125 22.75 C-15.599375 23.41 -16.07375 24.07 -16.5625 24.75 C-15.9025 26.4 -15.2425 28.05 -14.5625 29.75 C-9.34601897 30.19308651 -9.34601897 30.19308651 -4.5625 28.625 C-3.14151395 25.96065116 -3.36482739 23.71508915 -3.5625 20.75 C-9.76113615 20.12685789 -9.76113615 20.12685789 -15.125 22.75 Z " fill="#0F0F0F" transform="translate(290.5625,45.25)"/>
<path d="M0 0 C3.70749326 3.43621326 6.95562636 7.21657408 7.5625 12.375 C7.62957633 15.04773377 7.60708049 17.70017071 7.5625 20.375 C4.56543305 21.24463087 1.91293474 21.49263099 -1.203125 21.47265625 C-2.09257812 21.46943359 -2.98203125 21.46621094 -3.8984375 21.46289062 C-4.81882812 21.45451172 -5.73921875 21.44613281 -6.6875 21.4375 C-7.62335938 21.43298828 -8.55921875 21.42847656 -9.5234375 21.42382812 C-11.82819041 21.41206918 -14.13281227 21.39563426 -16.4375 21.375 C-14.8047149 25.12167202 -14.8047149 25.12167202 -12.4375 28.375 C-8.21259324 28.82062911 -4.59294948 29.05136067 -0.875 26.875 C-0.400625 26.38 0.07375 25.885 0.5625 25.375 C3.18437494 26.42374998 4.35621361 27.02431313 5.8125 29.5 C6.06 30.11875 6.3075 30.7375 6.5625 31.375 C0.42881041 36.69086431 -3.29126968 37.68474374 -11.4921875 37.5859375 C-15.92688587 37.26833311 -18.75620552 36.09763779 -21.8671875 32.91015625 C-27.77192116 26.08802046 -27.05053941 18.96606618 -26.4375 10.375 C-24.98563603 5.38027233 -21.71771097 2.22847398 -17.4375 -0.625 C-11.6366439 -2.5586187 -5.5393254 -2.61859019 0 0 Z M-14.3125 7.625 C-15.72500433 9.61666151 -15.72500433 9.61666151 -16.4375 13.375 C-11.8175 13.375 -7.1975 13.375 -2.4375 13.375 C-3.76667961 7.89674919 -3.76667961 7.89674919 -5.4375 6.375 C-10.11760587 5.90780543 -10.11760587 5.90780543 -14.3125 7.625 Z " fill="#0F0F0F" transform="translate(352.4375,45.625)"/>
<path d="M0 0 C4.19924144 2.05417439 6.38749632 4.93925367 8.22265625 9.078125 C9.36349498 13.15748771 9.17645904 17.1904649 8.8671875 21.3828125 C3.95215992 22.67516965 -0.90571352 22.49416767 -5.9453125 22.4453125 C-6.82896484 22.44080078 -7.71261719 22.43628906 -8.62304688 22.43164062 C-10.79299809 22.41991116 -12.96291422 22.40197745 -15.1328125 22.3828125 C-13.44473342 26.61366153 -13.44473342 26.61366153 -10.1328125 29.3828125 C-4.44218466 29.76218769 -1.14905598 29.39255859 3.8671875 26.3828125 C5.1871875 27.3728125 6.5071875 28.3628125 7.8671875 29.3828125 C7.52750924 32.55314292 6.86849559 33.38163857 4.4296875 35.5703125 C-1.05099434 39.44689234 -6.57874614 39.04205192 -13.1328125 38.3828125 C-17.85124577 36.80261732 -21.04170736 34.11465203 -23.6328125 29.8828125 C-26.43450316 23.33308233 -26.20242106 15.535343 -23.9453125 8.8828125 C-17.69693974 0.26436731 -10.54496588 -3.05147364 0 0 Z M-13.0703125 8.6328125 C-14.47879792 10.61145544 -14.47879792 10.61145544 -14.1328125 14.3828125 C-9.8428125 14.3828125 -5.5528125 14.3828125 -1.1328125 14.3828125 C-1.62433732 9.52148755 -1.62433732 9.52148755 -4.1328125 7.3828125 C-8.83763662 6.88924983 -8.83763662 6.88924983 -13.0703125 8.6328125 Z " fill="#0E0E0E" transform="translate(252.1328125,44.6171875)"/>
<path d="M0 0 C0.721875 0.00257812 1.44375 0.00515625 2.1875 0.0078125 C2.909375 0.00523438 3.63125 0.00265625 4.375 0 C6.1875 0.1328125 6.1875 0.1328125 7.1875 1.1328125 C7.32865161 3.80340101 7.22997107 6.45713488 7.1875 9.1328125 C7.991875 9.1121875 8.79625 9.0915625 9.625 9.0703125 C12.1875 9.1328125 12.1875 9.1328125 13.1875 10.1328125 C13.3125 13.1328125 13.3125 13.1328125 13.1875 16.1328125 C12.8575 16.4628125 12.5275 16.7928125 12.1875 17.1328125 C10.5375 17.1328125 8.8875 17.1328125 7.1875 17.1328125 C7.5175 24.3928125 7.8475 31.6528125 8.1875 39.1328125 C10.1675 39.7928125 12.1475 40.4528125 14.1875 41.1328125 C14.1875 43.1128125 14.1875 45.0928125 14.1875 47.1328125 C10.49596481 48.9785801 6.21728061 48.61456333 2.1875 48.1328125 C-0.91049981 45.94154434 -1.61602112 44.72224914 -2.8125 41.1328125 C-2.89489169 39.28670718 -2.91993359 37.43776086 -2.91015625 35.58984375 C-2.90693359 34.51669922 -2.90371094 33.44355469 -2.90039062 32.33789062 C-2.89201172 31.21833984 -2.88363281 30.09878906 -2.875 28.9453125 C-2.87048828 27.81416016 -2.86597656 26.68300781 -2.86132812 25.51757812 C-2.84953498 22.72260323 -2.8330765 19.9277343 -2.8125 17.1328125 C-4.7925 16.8028125 -6.7725 16.4728125 -8.8125 16.1328125 C-8.8125 14.1528125 -8.8125 12.1728125 -8.8125 10.1328125 C-6.8325 9.8028125 -4.8525 9.4728125 -2.8125 9.1328125 C-2.833125 7.8334375 -2.85375 6.5340625 -2.875 5.1953125 C-2.89649454 3.84115617 -2.88398199 2.48525167 -2.8125 1.1328125 C-1.8125 0.1328125 -1.8125 0.1328125 0 0 Z " fill="#0F0F0F" transform="translate(308.8125,34.8671875)"/>
<path d="M0 0 C4.10925646 0.71472074 4.10925646 0.71472074 8 -0.4375 C11.5625 -0.5625 11.5625 -0.5625 15 -0.4375 C16 0.5625 16 0.5625 16.125 4.0625 C16 7.5625 16 7.5625 15 8.5625 C12.68917227 9.13131913 10.36355903 9.59013361 8.03125 10.0625 C6.01766043 10.3723065 6.01766043 10.3723065 5 11.5625 C4.854088 13.47590269 4.7726707 15.39429961 4.71875 17.3125 C4.68136719 18.4778125 4.64398438 19.643125 4.60546875 20.84375 C4.57066406 22.0709375 4.53585938 23.298125 4.5 24.5625 C4.43145645 26.97929465 4.35877121 29.39597665 4.28125 31.8125 C4.23581055 33.42898437 4.23581055 33.42898437 4.18945312 35.078125 C4 37.5625 4 37.5625 3 38.5625 C1.1875 38.6953125 1.1875 38.6953125 -1 38.6875 C-1.721875 38.69007812 -2.44375 38.69265625 -3.1875 38.6953125 C-5 38.5625 -5 38.5625 -6 37.5625 C-6.08858646 34.82355915 -6.11523479 32.1099673 -6.09765625 29.37109375 C-6.0962413 28.55125504 -6.09482635 27.73141632 -6.09336853 26.88673401 C-6.08775289 24.25778618 -6.07519779 21.62892227 -6.0625 19 C-6.05748701 17.22200643 -6.05292376 15.44401154 -6.04882812 13.66601562 C-6.03777839 9.29814455 -6.02050331 4.93033652 -6 0.5625 C-3.5990143 -0.63799285 -2.61479284 -0.38933496 0 0 Z " fill="#111111" transform="translate(210,44.4375)"/>
<path d="M0 0 C0.66 0 1.32 0 2 0 C2 1.32 2 2.64 2 4 C14.87 4 27.74 4 41 4 C42.22321653 7.6696496 42.10526709 11.02647559 42.0625 14.84375 C42.05871338 15.60925171 42.05492676 16.37475342 42.05102539 17.16345215 C42.03467356 20.43732197 42.00651114 23.71106695 41.97949219 26.98486328 C41.96143666 29.37531968 41.94932479 31.76575599 41.9375 34.15625 C41.92920166 34.89693726 41.92090332 35.63762451 41.91235352 36.40075684 C41.89729997 39.5489668 41.99628464 41.98885392 43 45 C42.01 45 41.02 45 40 45 C40 32.13 40 19.26 40 6 C27.95835153 6.03955438 27.95835153 6.03955438 15.91674805 6.09008789 C14.406739 6.0930086 12.89672916 6.0955568 11.38671875 6.09765625 C10.60317017 6.10277222 9.81962158 6.10788818 9.0123291 6.11315918 C5.74424898 6.11368519 3.12321367 6.04107122 0 5 C0 3.35 0 1.7 0 0 Z " fill="#010101" transform="translate(19,53)"/>
</svg>
